<?xml version="1.0" encoding="utf-8"?>
<!-- Generator: Adobe Illustrator 17.1.0, SVG Export Plug-In . SVG Version: 6.00 Build 0)  -->
<!DOCTYPE svg PUBLIC "-//W3C//DTD SVG 1.1//EN" "http://www.w3.org/Graphics/SVG/1.1/DTD/svg11.dtd">
<svg version="1.1" id="Layer_1" xmlns="http://www.w3.org/2000/svg" xmlns:xlink="http://www.w3.org/1999/xlink" x="0px" y="0px"
	 viewBox="0 0 881.6 333.8" enable-background="new 0 0 881.6 333.8" xml:space="preserve">
<g>
	<path fill="#FFFFFF" d="M154.1,283.6c-11.9,0-22.7,0-33.8,0c0-92.2,0-184,0-276.3c11.6,0,22.9,0,35,0c0,22.6,0,44.9,0,68.8
		c2.4-2,3.7-2.8,4.6-3.9c5.7-7.8,13.6-11.3,22.9-11.9c19.2-1.3,28.3,6.4,28.4,25.6c0.4,64.3,0.3,128.6,0.3,193
		c0,1.4-0.3,2.8-0.5,4.6c-10.2,0-20.1,0-31,0c-0.2-3.6-0.6-7.2-0.6-10.8c0-54.3,0-108.5,0-162.8c0-14.4-4-20.6-12.8-20.4
		c-8.7,0.3-12.4,6.2-12.4,19.9c0,54.3,0,108.5,0,162.8C154.1,275.7,154.1,279.1,154.1,283.6z"/>
	<path fill="#FFFFFF" d="M404.3,8.2c10.4,0,20.3,0,31.1,0c0,3.9,0,7.2,0,10.6c0,46.2-0.1,92.5,0.1,138.7c0,2.6,1.8,5.2,2.7,7.8
		c1.5-2.3,3.8-4.5,4.3-7.1c6.5-31.4,12.7-62.9,19.1-94.8c11.1,0,21.9,0,33.7,0c-4.1,19.8-8.2,39.3-12.3,58.8
		c-1.9,9-3.5,18.1-6.1,26.8c-5,17,1.4,32.9,4.1,49.1c4.7,28.3,10.3,56.4,15.8,85.7c-11.1,0-21.3,0.3-31.5-0.3
		c-1.6-0.1-3.9-4.2-4.3-6.7c-6.3-34.4-12.3-68.9-18.6-103.3c-0.5-2.6-2.7-4.8-4.1-7.2c-0.9,2.6-2.7,5.3-2.7,7.9
		c-0.2,33-0.1,66-0.1,99.1c0,3.1,0,6.2,0,9.9c-10.5,0-20.4,0-31,0C404.3,192.1,404.3,100.7,404.3,8.2z"/>
	<path fill="#FFFFFF" d="M324.4,283.7c-11.2,0-21.2,0-31.9,0c0-73.2,0-146.2,0-219.9c10.6,0,21.4,0,32.7,0c0.5,3.5,0.9,7.2,1.6,12.5
		c10.4-14.9,23.7-18.5,39.3-14.7c7.7,1.9,12.8,6.5,14.2,14.4c0.9,5.1,1.7,10.2,1.7,15.4c0.1,62.3,0.1,124.7,0.1,187
		c0,1.4-0.2,2.8-0.4,5c-10.2,0-20.4,0-32.1,0c0-3.1,0-6.4,0-9.7c0-54,0-108,0-162c0-15.8-3.8-22.4-12.8-22.1
		c-9,0.3-12.4,6.4-12.4,22.6c0,53.4,0,106.9,0,160.3C324.4,275.8,324.4,279.2,324.4,283.7z"/>
	<path fill="#FFFFFF" d="M71.9,42.2c0,81.5,0,161.1,0,241.3c-11.9,0-22.9,0-34.8,0c0-79.9,0-159.5,0-240.3c-12.6,0-24.5,0-37.1,0
		c0-12.1,0-23,0-34.5c36.1,0,72.1,0,108.8,0c0,10.9,0,21.6,0,33.5C97.1,42.2,85.2,42.2,71.9,42.2z"/>
	<path fill="#FFFFFF" d="M678.7,63.9c5.1,0,9.9,0,16.1,0c0,3.2,0,6.3,0,9.3c0,75.2,0,150.5,0,225.7c0,18.5-4.6,26.7-17.9,31.8
		c-16.2,6.2-39.8,2.8-48.4-8c-3.4-4.2-5.7-10.1-6.6-15.5c-1.1-7-0.3-14.2-0.3-22.1c5.2,0,9.9,0,15.5,0c0.4,6.2,0.6,12.6,1.2,19.1
		c1.3,13.2,8.8,20.9,19.8,20.7c10.7-0.1,19.2-8.4,19.7-21c0.6-16.5,0.2-33,0.2-50.2c-16.6,17.6-36.8,19.5-49.8,4.3
		c-3.9-4.5-6.5-11.7-6.6-17.7c-0.5-50-0.3-99.9-0.3-149.9c0-14,6.7-23,20.2-27.4c12.3-4.1,25.9,0.3,33.6,10.8
		c0.5,0.7,1.1,1.2,2.5,2.7C678.1,71.8,678.4,68.1,678.7,63.9z M638.4,165.1c0,0-0.1,0-0.1,0c0,23-0.1,45.9,0,68.9
		c0.1,12.6,8.3,21.4,19.8,21.4c11.2,0,19.8-9.1,19.9-21.5c0.1-45.7,0.1-91.3,0-137c0-3.6-0.6-7.6-2-10.9
		c-3.7-8.7-12.9-13.3-21.8-11.5c-8.8,1.8-15.5,9.3-15.7,19.1C638.2,117.5,638.4,141.3,638.4,165.1z"/>
	<path fill="#FFFFFF" d="M865.5,208.3c5.8,0,10.5,0,15.9,0c0,18.5,0.5,36.5-0.2,54.5c-0.4,8.7-7.1,14.3-14.8,17.5
		c-12.9,5.5-26.3,5.7-39.5,1c-12.1-4.4-18.6-13.6-18.6-26.3c-0.2-55.4-0.3-110.8,0-166.2c0.1-14.1,7.6-23.3,21.1-27
		c14.9-4,29.9-4.3,42.8,5.5c4.2,3.2,8.8,9,9,13.8c0.8,28.3,0.4,56.7,0.4,86.1c-18.9,0-37.1,0-55.8,0c-0.3,2.9-0.6,4.8-0.7,6.7
		c0,25.6,0.4,51.1-0.1,76.7c-0.4,22.4,15,24.3,31,19.9c8-2.2,9.3-9.6,9.5-16.7c0.2-11.8,0.1-23.5,0.1-35.3
		C865.5,215.3,865.5,212.2,865.5,208.3z M865.5,155.9c0-22.2,0.2-43.4-0.1-64.6c-0.2-14.4-5.6-19.4-20.2-19.5
		c-14.4,0-20,5.2-20.1,19.6c-0.2,19.8-0.1,39.6,0,59.5c0,1.6,0.6,3.2,0.9,5C839,155.9,851.6,155.9,865.5,155.9z"/>
	<path fill="#FFFFFF" d="M235.8,63.4c11.2,0,21.9,0,33.2,0c0,73.4,0,146.4,0,220c-11,0-21.8,0-33.2,0
		C235.8,210.4,235.8,137.4,235.8,63.4z"/>
	<path fill="#FFFFFF" d="M781,284.1c-5,0-9.5,0-14.9,0c0-91.3,0-182.5,0-273.9c1.7-0.2,3.3-0.6,5-0.7c3.1-0.1,6.2,0,9.9,0
		C781,101.1,781,192.1,781,284.1z"/>
	<path fill="#FFFFFF" d="M721.4,63.5c5.5,0,10.3,0,15.8,0c0,73.4,0,146.7,0,220.5c-5.3,0-10.3,0-15.8,0
		C721.4,210.5,721.4,137.5,721.4,63.5z"/>
	<path fill="#FFFFFF" d="M229.9,21.5C230,9,239.1,0.1,251.8,0c12.6-0.1,21.7,9,21.7,21.6c0,12.9-9.7,22.5-22.2,22.2
		C239.1,43.5,229.9,33.9,229.9,21.5z"/>
	<path fill="#FFFFFF" d="M740.3,29.8C740.2,36,734.9,41,728.5,41c-6.2-0.1-11.4-5.4-11.3-11.7c0.1-6.3,5.4-11.3,11.8-11.2
		C735.3,18.2,740.4,23.5,740.3,29.8z"/>
	<path fill="#FFFFFF" d="M573.4,12.2c-9.3,0-17.5,0-25.5,0c-12.8,91-25.6,181.1-38.3,271.3c16.1,2.6,16.2,2.6,18.2-11.9
		c2.6-18.5,4.9-37,7.7-55.4c0.4-2.6,3.3-6.8,5.2-6.9c12.8-0.6,25.7-0.2,39.1-0.2c3.4,25.6,6.7,50.1,10,75.1c6.7,0,12.6,0,19.4,0
		C597.3,193.2,585.3,102.2,573.4,12.2z M539.2,190.2c6.3-50,12.5-97.4,18.7-145.6c0.7,0,1.4,0.1,2.2,0.1
		c5.8,48.1,11.6,95.6,17.5,145.6C564.2,190.2,552.3,190.2,539.2,190.2z"/>
</g>
</svg>
